***************************************************************

[IMG]http://www.torrentforce.org/imghost/3/greyshadow_tfbanner.png[/IMG]

***************************************************************

[IMG]http://www.torrentforce.org/imghost/4/greyshadow_rareexports.jpg[/IMG]

***************************************************************

FILM TITLE: Rare Exports: A Christmas Tale (2010) Rare Exports (original title)

***************************************************************

Genre: Action | Comedy | Fantasy   

Rated R for some nudity and language

Release: 3 December 2010 (UK)

Director: Jalmari Helander

Writer: Petri Jokiranta (dramaturge), Sami Parkkinen

Stars: Jorma Tommila, Peeter Jakobi and Onni Tommila

Country: Finland | Norway | France | Sweden

Language: Finnish | English 

Plot:
In the depths of the Korvatunturi mountains, 486 metres deep, lies 
the closest ever guarded secret of Christmas. The time has come 
to dig it up! This Christmas everyone will believe in Santa Claus.

IMDB Rating: 6.9/10 from 5,002 users   Metascore: 71/100
 
http://www.imdb.com/title/tt1401143/ 

****************************************************************

[IMG]http://www.torrentforce.org/imghost/4/greyshadow_rareexportsx264megui.png[/IMG]
[IMG]http://www.torrentforce.org/imghost/4/greyshadow_rareexportsx2641.png[/IMG]
[IMG]http://www.torrentforce.org/imghost/4/greyshadow_rareexportsx2642.png[/IMG]
[IMG]http://www.torrentforce.org/imghost/4/greyshadow_rareexportsx2643.png[/IMG]
[IMG]http://www.torrentforce.org/imghost/4/greyshadow_rareexportsx264wd.png[/IMG]

****************************************************************

[IMG]http://www.torrentforce.org/imghost/2/greyshadow_mediainfo.png[/IMG]
General
Complete name                    : Rare Exports-A Christmas Tale 2010 720p BDRip x264 ac3 (mkv) [TFRG].mkv
Format                           : Matroska
Format version                   : Version 2
File size                        : 2.68 GiB
Duration                         : 1h 22mn
Overall bit rate                 : 4641 Kbps
Encoded date                     : UTC 2011-11-08 22:30:33
Writing application              : mkvmerge v4.9.1 ('Ich will') built on Jul 11 2011 23:53:15
Writing library                  : libebml v1.2.1 + libmatroska v1.1.1

Video
ID                               : 1
Format                           : AVC
Format/Info                      : Advanced Video Codec
Format profile                   : High@L4.1
Format settings, CABAC           : Yes
Format settings, ReFrames        : 12 frames
Codec ID                         : V_MPEG4/ISO/AVC
Duration                         : 1h 22mn
Bit rate                         : 4 000 Kbps
Width                            : 1280 pixels
Height                           : 544 pixels
Display aspect ratio             : 2.35:1
Frame rate                       : 23.976 fps
Color space                      : YUV
Chroma subsampling               : 4:2:0
Bit depth                        : 8 bits
Scan type                        : Progressive
Bits/(Pixel*Frame)               : 0.240
Stream size                      : 2.26 GiB (84%)
Title                            : AVC MPEG4 Video
Writing library                  : x264 core 119 r2106 07efeb4
Language                         : Finnish
Color primaries                  : BT.709-5, BT.1361, IEC 61966-2-4, SMPTE RP177
Transfer characteristics         : BT.709-5, BT.1361
Matrix coefficients              : BT.709-5, BT.1361, IEC 61966-2-4 709, SMPTE RP177

Audio
ID                               : 2
Format                           : AC-3
Format/Info                      : Audio Coding 3
Mode extension                   : CM (complete main)
Codec ID                         : A_AC3
Duration                         : 1h 22mn
Bit rate mode                    : Constant
Bit rate                         : 640 Kbps
Channel(s)                       : 6 channels
Channel positions                : Front: L C R, Side: L R, LFE
Sampling rate                    : 48.0 KHz
Bit depth                        : 16 bits
Compression mode                 : Lossy
Stream size                      : 379 MiB (14%)
Title                            : AC3 5.1 Audio
Language                         : Finnish

Text
ID                               : 3
Format                           : UTF-8
Codec ID                         : S_TEXT/UTF8
Codec ID/Info                    : UTF-8 Plain Text
Title                            : English For Foreign Parts sup to srt edited by greyshadow
Language                         : English

****************************************************************

Video Source: Rare Exports : A Christmas Tale 2010 US BluRay 1080p AVC DTS-HD MA5.1-CHDBits (45.GB)

Thanks: (chdbits.org)

****************************************************************

I provide a small sample, so please download this to check your 
compatibility first if you are unsure.

****************************************************************

7th October 2011

I am re-introducing my warning to all downloaders, please please
please use a proxy or vpn service, it is the only secure way to
keep your own ip address from being seen during downloading or
uploading/seeding, this WILL stop isp letters, as for advice to 
which one then thats simple, vpntunnel.se server based in Sweden 
is the right one to use, I have cancelled my vpn and transfered 
to a Swedish one already !!! enough said. 

****************************************************************

A big thanks to all the sites out there who care and share and
who make it possible for you to download this torrent for free.

Greetz to Westy, Ripwyn, mustang, noir, Blackjesus, MXMG, The Stig 
and all the other outstanding members of our community of file 
sharers and a special mention to our friends at 1337x.

****************************************************************